<svg xmlns="http://www.w3.org/2000/svg" xmlns:xlink="http://www.w3.org/1999/xlink" viewBox="0,0,256,256" width="64px" height="64px" fill-rule="nonzero"><g fill="none" fill-rule="nonzero" stroke="none" stroke-width="1" stroke-linecap="butt" stroke-linejoin="miter" stroke-miterlimit="10" stroke-dasharray="" stroke-dashoffset="0" font-family="none" font-weight="none" font-size="none" text-anchor="none" style="mix-blend-mode: normal"><g transform="scale(4,4)"><path d="M7,51v-38c0,-3.31 2.69,-6 6,-6h38c3.31,0 6,2.69 6,6v38c0,3.31 -2.69,6 -6,6h-38c-3.31,0 -6,-2.69 -6,-6z" fill="#6f6ffe"></path><path d="M11,57h42c2.209,0 4,-1.791 4,-4v0c0,-1.657 -1.343,-3 -3,-3h-44c-1.657,0 -3,1.343 -3,3v0c0,2.209 1.791,4 4,4z" fill="#8b8bfc"></path><path d="M51,58h-38c-3.86,0 -7,-3.141 -7,-7v-38c0,-3.859 3.14,-7 7,-7h38c3.86,0 7,3.141 7,7v38c0,3.859 -3.14,7 -7,7zM13,8c-2.757,0 -5,2.243 -5,5v38c0,2.757 2.243,5 5,5h38c2.757,0 5,-2.243 5,-5v-38c0,-2.757 -2.243,-5 -5,-5z" fill="#8b8bfc"></path><path d="M47,48c-0.552,0 -1,0.448 -1,1v2c0,0.552 0.448,1 1,1c0.552,0 1,-0.448 1,-1v-2c0,-0.552 -0.448,-1 -1,-1zM52,52c0.552,0 1,-0.448 1,-1v-2c0,-0.552 -0.448,-1 -1,-1c-0.552,0 -1,0.448 -1,1v2c0,0.552 0.448,1 1,1zM32,48c-0.552,0 -1,0.448 -1,1v2c0,0.552 0.448,1 1,1c0.552,0 1,-0.448 1,-1v-2c0,-0.552 -0.448,-1 -1,-1zM27,48c-0.552,0 -1,0.448 -1,1v2c0,0.552 0.448,1 1,1c0.552,0 1,-0.448 1,-1v-2c0,-0.552 -0.448,-1 -1,-1zM22,48c-0.552,0 -1,0.448 -1,1v2c0,0.552 0.448,1 1,1c0.552,0 1,-0.448 1,-1v-2c0,-0.552 -0.448,-1 -1,-1zM17,48c-0.552,0 -1,0.448 -1,1v2c0,0.552 0.448,1 1,1c0.552,0 1,-0.448 1,-1v-2c0,-0.552 -0.448,-1 -1,-1zM12,52c0.552,0 1,-0.448 1,-1v-2c0,-0.552 -0.448,-1 -1,-1c-0.552,0 -1,0.448 -1,1v2c0,0.552 0.448,1 1,1zM42,48c-0.552,0 -1,0.448 -1,1v2c0,0.552 0.448,1 1,1c0.552,0 1,-0.448 1,-1v-2c0,-0.552 -0.448,-1 -1,-1zM37,48c-0.552,0 -1,0.448 -1,1v2c0,0.552 0.448,1 1,1c0.552,0 1,-0.448 1,-1v-2c0,-0.552 -0.448,-1 -1,-1z" fill="#8b8bfc"></path><path d="M21.093,24.276h2.335v4.669h3.113v-12.452h-3.113v4.67h-2.335v-4.67h-3.112v12.452h3.112z" fill="#ffffff"></path><path d="M30.328,28.945h2.257c2.257,0 3.762,-1.384 3.762,-3.113c0,-0.399 -0.057,-0.776 -0.153,-1.126c0.823,2.472 3.139,4.239 5.901,4.239c3.458,0 6.226,-2.767 6.226,-6.226c0,-3.459 -2.767,-6.226 -6.226,-6.226c-2.739,0 -5.039,1.739 -5.879,4.179c0.081,-0.333 0.131,-0.689 0.131,-1.066c0,-1.729 -1.505,-3.113 -3.762,-3.113h-5.265v12.451h2.257h0.751zM42.094,19.606c1.743,0 3.113,1.37 3.113,3.113c0,1.743 -1.37,3.113 -3.113,3.113c-1.743,0 -3.113,-1.37 -3.113,-3.113c0,-1.743 1.37,-3.113 3.113,-3.113zM36.094,21.066c-0.143,0.526 -0.226,1.079 -0.226,1.653c0,0.615 0.091,1.206 0.254,1.766c-0.357,-1.045 -1.114,-1.766 -2.033,-1.766c0.938,0 1.65,-0.671 2.005,-1.653zM30.432,19.606h1.703c0.545,0 1.021,0.454 1.021,0.973c0,0.519 -0.476,0.973 -1.021,0.973h-1.703zM30.432,23.886h1.703c0.545,0 1.021,0.455 1.021,0.973c0,0.518 -0.476,0.973 -1.021,0.973h-1.703z" fill="#ffffff"></path><path d="M42.093,24.625c1.067,0 1.907,-0.838 1.907,-1.906c0,-1.068 -0.839,-1.906 -1.906,-1.906c-1.067,0 -1.907,0.838 -1.907,1.906c0,1.068 0.839,1.906 1.906,1.906z" fill="#ffffff"></path><path d="M23.065,30.274c-0.971,0.188 -1.79,0.724 -2.397,1.446c-0.976,-1.13 -2.506,-1.77 -4.17,-1.446c-2.074,0.405 -3.498,2.349 -3.498,4.464v5.958c0,0.602 0.487,1.089 1.089,1.089h1.09v-7.223c0,-1.209 0.984,-2.193 2.193,-2.193c1.209,0 2.193,0.984 2.193,2.193v6.134c0,0.602 0.487,1.089 1.089,1.089h1.089v-7.223c0,-1.209 0.984,-2.193 2.193,-2.193c1.209,0 2.193,0.984 2.193,2.193v6.134c0,0.602 0.487,1.089 1.09,1.089h1.089v-7.223c0.004,-2.696 -2.45,-4.831 -5.243,-4.288z" fill="#ffffff"></path><path d="M37.903,31.202v0.283c-0.946,-0.982 -2.201,-1.587 -3.58,-1.587c-2.934,0 -5.321,2.714 -5.321,6.051c0,3.337 2.388,6.051 5.321,6.051c1.379,0 2.633,-0.605 3.58,-1.587v0.283c0,0.602 0.487,1.089 1.089,1.089h1.09v-11.673h-1.09c-0.602,0 -1.089,0.487 -1.089,1.09zM34.323,39.819c-1.734,0 -3.142,-1.735 -3.142,-3.871c0,-2.135 1.41,-3.871 3.142,-3.871c1.732,0 3.142,1.735 3.142,3.871c0,2.136 -1.408,3.871 -3.142,3.871z" fill="#ffffff"></path><path d="M48.041,35.1l3.679,-4.988h-1.92c-0.495,0 -0.959,0.235 -1.253,0.632l-2.165,2.934c-0.187,0.254 -0.565,0.254 -0.752,0l-2.165,-2.934c-0.294,-0.398 -0.758,-0.632 -1.253,-0.632h-1.921l3.679,4.988c0.405,0.549 0.405,1.298 0,1.847l-3.511,4.76h1.921c0.495,0 0.959,-0.235 1.253,-0.632l1.997,-2.707c0.187,-0.254 0.565,-0.254 0.752,0l1.997,2.707c0.294,0.398 0.758,0.632 1.253,0.632h1.921l-3.511,-4.76c-0.405,-0.549 -0.405,-1.297 -0.001,-1.847z" fill="#ffffff"></path></g></g></svg>