<svg xmlns="http://www.w3.org/2000/svg" enable-background="new 0 0 512 512" viewBox="0 0 512 512"><radialGradient id="a" cx="257" cy="182" r="251" gradientUnits="userSpaceOnUse"><stop offset=".737" stop-color="#ffc970"/><stop offset="1" stop-color="#ffb233"/></radialGradient><path fill="url(#a)" d="M507,5L507,5l-16.7,10.1C425.6,54.3,351.4,75,275.8,75l0,0h-39.6l0,0 C160.6,75,86.4,54.3,21.7,15.1L5,5v0c0,52.7,15.2,104.2,43.8,148.4l4.4,6.8C22.1,197.5,5,244.5,5,293.2v0 c0,86.5,53.7,163.9,134.7,194.3l0,0c34.6,12.9,71.2,19.6,108.1,19.6h16.3c36.9,0,73.6-6.6,108.1-19.6l0,0 c81-30.3,134.7-107.7,134.7-194.3v0c0-48.6-17.1-95.7-48.2-132.9l4.4-6.8C491.8,109.2,507,57.7,507,5z"/><linearGradient id="b" x1="256" x2="256" y1="318.501" y2="497.101" gradientUnits="userSpaceOnUse"><stop offset=".483" stop-color="#ebeae0"/><stop offset="1" stop-color="#d7d5c1"/></linearGradient><path fill="url(#b)" d="M256,240L256,240c-12.4,0-23.9,6.5-30.2,17.2l-8.4,14.1c-6.5,11-18.4,17.7-31.1,17.7h0 c-20,0-36.2,16.2-36.2,36.2v165.8c31.5,10.5,64.6,15.9,97.8,15.9h16.3c33.3,0,66.3-5.4,97.8-15.9V325.2c0-20-16.2-36.2-36.2-36.2 h0c-12.8,0-24.6-6.7-31.1-17.7l-8.4-14.1C279.9,246.5,268.4,240,256,240z"/><linearGradient id="c" x1="1.084" x2="75.98" y1="54.367" y2="129.263" gradientUnits="userSpaceOnUse"><stop offset=".483" stop-color="#ebeae0"/><stop offset="1" stop-color="#d7d5c1"/></linearGradient><path fill="url(#c)" d="M53.2,160.2c1.1-1.3,2.2-2.7,3.4-4v0c15.9-18.1,34.2-33.5,54.3-45.8 C68.7,83.2,32.6,47.3,5,5v0v0c0,52.7,15.2,104.2,43.8,148.4L53.2,160.2z"/><linearGradient id="d" x1="1301.084" x2="1375.98" y1="54.367" y2="129.263" gradientTransform="matrix(-1 0 0 1 1812 0)" gradientUnits="userSpaceOnUse"><stop offset=".483" stop-color="#ebeae0"/><stop offset="1" stop-color="#d7d5c1"/></linearGradient><path fill="url(#d)" d="M458.8,160.2c-1.1-1.3-2.2-2.7-3.4-4v0c-15.9-18.1-34.2-33.5-54.3-45.8 C443.3,83.2,479.4,47.3,507,5v0v0c0,52.7-15.2,104.2-43.8,148.4L458.8,160.2z"/><path fill="#e36414" d="M9.2 334.5c2.1 10.6 5.1 20.9 8.8 30.9 25.8-10.5 43.6-24.2 40.8-31.9C56 325.9 34.7 326.6 9.2 334.5zM58.7 280.6c3.1-8.4-18.5-24-48.2-34.8 0 0 0 0 0 0-2.5 10.7-4.2 21.6-5 32.7C32.7 287.3 55.9 288.4 58.7 280.6zM501.5 245.7C501.5 245.7 501.5 245.7 501.5 245.7c-29.7 10.8-51.3 26.4-48.2 34.8 2.9 7.8 26.1 6.7 53.2-2.2C505.7 267.3 504 256.4 501.5 245.7zM453.3 333.4c-2.8 7.7 15 21.4 40.8 31.9 3.7-10 6.7-20.3 8.8-30.9C477.3 326.6 456 325.9 453.3 333.4z"/><rect width="10" height="60" x="251" y="260" fill="#b24e10"/><rect width="10" height="41.2" x="103" y="303.4" fill="#b24e10" transform="rotate(75.96 108 324.016)"/><rect width="41.2" height="10" x="87.4" y="289" fill="#b24e10" transform="rotate(14.035 108.012 294.045)"/><rect width="10" height="41.2" x="399" y="273.4" fill="#b24e10" transform="rotate(75.96 404.013 294.018)"/><rect width="41.2" height="10" x="383.4" y="319" fill="#b24e10" transform="rotate(14.035 404.056 324.054)"/><path fill="#e36414" d="M261.9 240h-11.7c-7.8 0-14.1 6.3-14.1 14.1v0c0 3.8 1.5 7.3 4.1 10L256 280l15.9-15.9c2.7-2.7 4.1-6.2 4.1-10v0C276 246.3 269.7 240 261.9 240zM172.7 80.6c10.8 29.7 26.4 51.2 34.8 48.2 8-2.9 6.7-27.1-2.8-54.9-12-.9-23.9-2.3-35.7-4.3C170.2 73.1 171.4 76.8 172.7 80.6zM275.8 75h-39.6l0 0c-1.7 0-3.2 0-5.2 0 0 0 0 0 0 0 0 38.7 11.2 70 25 70s25-31.3 25-70c0 0 0 0 0 0C279.3 75 277.5 75 275.8 75L275.8 75zM307.2 73.8c-9.4 27.9-10.8 52-2.8 54.9 8.4 3.1 24-18.5 34.8-48.2 1.4-3.7 2.6-7.4 3.7-11C331.1 71.5 319.2 72.9 307.2 73.8z"/><rect width="20" height="40" x="182" y="220" fill="#1f3e75"/><rect width="20" height="40" x="310" y="220" fill="#1f3e75"/><rect width="44.7" height="10" x="169.6" y="215" fill="#b24e10" transform="rotate(26.565 192.006 220.007)"/><rect width="10" height="44.7" x="315" y="197.6" fill="#b24e10" transform="rotate(63.429 320.002 220.018)"/><path fill="#b24e10" d="M296.8,359.9L256,326.5l-40.8,33.4l-6.3-7.7l44-36c1.8-1.5,4.5-1.5,6.3,0l44,36 L296.8,359.9z"/><path fill="#db3429" d="M139.1 177L139.1 177c-18.1 0-32.8-14.7-32.8-32.8V5l62.2 124.5C179.4 151.3 163.5 177 139.1 177zM372.9 177L372.9 177c18.1 0 32.8-14.7 32.8-32.8V5l-62.2 124.5C332.6 151.3 348.5 177 372.9 177z"/><rect width="10" height="40" x="251" y="280" fill="#4d2419"/><rect width="10" height="41.2" x="103" y="303.4" fill="#4d2419" transform="rotate(75.96 108 324.016)"/><rect width="41.2" height="10" x="87.4" y="289" fill="#4d2419" transform="rotate(14.035 108.012 294.045)"/><rect width="10" height="41.2" x="399" y="273.4" fill="#4d2419" transform="rotate(75.96 404.013 294.018)"/><rect width="41.2" height="10" x="383.4" y="319" fill="#4d2419" transform="rotate(14.035 404.056 324.054)"/><rect width="20" height="40" x="182" y="220" fill="#4d2419"/><rect width="20" height="40" x="310" y="220" fill="#4d2419"/><path fill="#4d2419" d="M256,285c-1.3,0-2.6-0.5-3.5-1.5l-15.9-15.9c-3.6-3.6-5.6-8.4-5.6-13.5 c0-10.6,8.6-19.1,19.1-19.1h11.7c10.6,0,19.1,8.6,19.1,19.1c0,5.1-2,9.9-5.6,13.5l-15.9,15.9C258.6,284.5,257.3,285,256,285z M250.1,245c-5,0-9.1,4.1-9.1,9.1c0,2.4,1,4.7,2.7,6.5l12.3,12.3l12.3-12.3c1.7-1.7,2.7-4,2.7-6.5c0-5-4.1-9.1-9.1-9.1H250.1z"/><rect width="44.7" height="10" x="169.6" y="215" fill="#4d2419" transform="rotate(26.565 192.006 220.007)"/><rect width="10" height="44.7" x="315" y="197.6" fill="#4d2419" transform="rotate(63.435 320.01 220.007)"/><path fill="#4d2419" d="M296.8 359.9L256 326.5l-40.8 33.4-6.3-7.7 44-36c1.8-1.5 4.5-1.5 6.3 0l44 36L296.8 359.9zM139.1 182c-20.9 0-37.8-17-37.8-37.8V5c0-2.3 1.6-4.3 3.9-4.9 2.3-.5 4.6.6 5.6 2.6L173 127.2c5.9 11.8 5.3 25.6-1.7 36.8S152.3 182 139.1 182zM111.3 26.2v118c0 15.4 12.5 27.8 27.8 27.8 9.7 0 18.6-4.9 23.7-13.2 5.1-8.3 5.6-18.4 1.2-27.1L111.3 26.2zM372.9 182c-13.2 0-25.2-6.7-32.2-18s-7.6-25-1.7-36.8L401.3 2.8c1-2.1 3.4-3.2 5.6-2.6 2.3.5 3.9 2.5 3.9 4.9v139.2C410.7 165 393.8 182 372.9 182zM400.7 26.2L348 131.7c-4.3 8.7-3.9 18.8 1.2 27.1 5.1 8.3 14 13.2 23.7 13.2 15.4 0 27.8-12.5 27.8-27.8V26.2zM256 150c-19.5 0-30-38.6-30-74.9 0-2.7 2.2-4.9 4.9-5 1.8 0 3.5-.1 5.3-.1h39.6c1.8 0 3.5 0 5.3.1 2.7.1 4.9 2.3 4.9 5C286 111.4 275.5 150 256 150zM236.1 80c.9 37 12.1 60 19.9 60s19-23 19.9-60c0 0-.1 0-.1 0h-39.6C236.1 80 236.1 80 236.1 80z"/><path fill="#4d2419" d="M275.8,80h-39.6c-34.3,0-68.6-4.2-101.9-12.6l2.4-9.7c32.5,8.2,66,12.3,99.5,12.3h39.6 c33.7,0,67.3-4.2,100-12.4l2.4,9.7C344.8,75.7,310.3,80,275.8,80z"/><path fill="#4d2419" d="M264.2,512h-16.3c-37.7,0-74.6-6.7-109.9-19.9c-40.7-15.2-75.3-42.2-100.1-77.9 C13.1,378.5,0,336.6,0,293.2c0-48.4,16.7-95.6,47-133.3l-2.4-3.7C15.4,111,0,58.7,0,5c0-1.8,1-3.5,2.5-4.4c1.6-0.9,3.5-0.9,5,0.1 l16.7,10.1c26.3,15.9,54.4,28.9,83.5,38.5l-3.1,9.5C74.8,49,46,35.7,19.1,19.4l-9-5.4c1.6,48.6,16.3,95.7,42.9,136.7l4.4,6.8 c1.2,1.8,1,4.2-0.4,5.9c-30.3,36.3-47,82.4-47,129.7c0,84,52.8,160.1,131.5,189.6c34.1,12.8,69.9,19.3,106.4,19.3h16.3 c36.5,0,72.2-6.5,106.4-19.3C449.2,453.3,502,377.1,502,293.2c0-47.3-16.7-93.4-47-129.7c-1.4-1.7-1.6-4.1-0.4-5.9l4.4-6.8 c26.5-41,41.2-88.1,42.9-136.7l-9,5.4C466,35.7,437.2,49,407.3,58.8l-3.1-9.5c29.2-9.6,57.3-22.6,83.5-38.5l16.7-10.1 c1.5-0.9,3.5-1,5-0.1C511,1.5,512,3.2,512,5c0,53.7-15.4,106-44.6,151.1l-2.4,3.7c30.4,37.7,47,84.9,47,133.3 c0,43.5-13.1,85.3-37.9,121c-24.8,35.7-59.4,62.7-100.1,77.9C338.8,505.3,301.8,512,264.2,512z"/><path fill="#4d2419" d="M53.2 165.2c-.1 0-.2 0-.3 0-1.6-.1-3-.9-3.9-2.3l-4.4-6.8C15.4 111 0 58.7 0 5c0-2.2 1.5-4.2 3.6-4.8C5.7-.4 8 .4 9.2 2.3 35.5 42.5 69 76.5 109 103.2l-4.8 7.1 4.7 7.2c-18.1 11.7-34.4 25.8-48.6 42-1.1 1.3-2.2 2.6-3.3 3.9C56.1 164.6 54.7 165.2 53.2 165.2zM10.5 21.9c2.9 45.8 17.4 90 42.5 128.8l.8 1.2c14.1-15.9 30.2-29.8 48-41.5C66.1 86.3 35.5 56.6 10.5 21.9zM458.8 165.2c-1.5 0-2.9-.7-3.8-1.8-1.1-1.3-2.2-2.6-3.3-3.9-14.2-16.1-30.5-30.3-48.6-42l4.7-7.2-4.8-7.1c40-26.7 73.6-60.7 99.9-101 1.2-1.9 3.5-2.7 5.6-2.1 2.1.6 3.6 2.6 3.6 4.8 0 53.7-15.4 106-44.6 151.1l-4.4 6.8c-.9 1.3-2.3 2.2-3.9 2.3C459 165.2 458.9 165.2 458.8 165.2zM410.3 110.4c17.7 11.7 33.9 25.7 48 41.5l.8-1.2c25.1-38.8 39.6-83 42.5-128.8C476.5 56.6 445.9 86.3 410.3 110.4zM205.8 134c-5.7 0-12-4.8-18.8-14.2-6.8-9.5-13.6-22.8-18.9-37.6-1.4-3.7-2.6-7.5-3.7-11.2l9.6-2.9c1.1 3.5 2.2 7.1 3.5 10.7 11.6 31.8 24.9 45.2 28.3 45.2 0 0 .1 0 .1 0 2.4-1.6 4.4-18.4-5.8-48.6l9.5-3.2c8.5 25.1 13.5 56.2-.3 61.2C208.1 133.8 207 134 205.8 134zM306.2 134c-1.2 0-2.3-.2-3.5-.6-13.8-5-8.8-36.1-.3-61.2l9.5 3.2c-10.2 30.2-8.2 47-5.7 48.6 0 0 .1 0 .1 0 3.3 0 16.7-13.4 28.2-45.2 1.3-3.5 2.5-7 3.5-10.5l9.6 2.9c-1.1 3.7-2.3 7.4-3.7 11.1-5.4 14.8-12.1 28.1-18.9 37.6C318.2 129.3 311.9 134 306.2 134z"/></svg>