<svg id="Layer_1" data-name="Layer 1" xmlns="http://www.w3.org/2000/svg" viewBox="0 0 128 128"><defs><style>.cls-1{fill:#fbe9d0;}.cls-1,.cls-2,.cls-3{stroke:#383f51;stroke-linecap:round;stroke-linejoin:round;stroke-width:2px;}.cls-2{fill:#ff7d7d;}.cls-3{fill:#57617d;}.cls-4{fill:none;}</style></defs><title>Skull in love</title><path class="cls-1" d="M94.48,97.2C96.61,100,98,103.06,98,106.08c0,5.47-3.75,9.92-8.89,9.92-3.18,0-7.11-3.62-7.11-7a6.82,6.82,0,0,1-6.61,7c-4.91,0-8-3.22-9-7.68C65,112.83,61.63,116,56.44,116c-4.22,0-7.44-3.82-7.44-8,0,3.76-4.42,8-8,8-5.78,0-10-4.94-10-11a15.17,15.17,0,0,1,2.73-8.1C20.53,91.26,11,75.08,11,56c0-25.33,23.92-45.87,53.5-46,29.58.13,53.5,20.67,53.5,46C118,75.46,108.09,91.9,94.48,97.2Z"/><path class="cls-2" d="M103,60c0,9.85-14.11,15.62-23,21,0-5.4.49-6.4-3.67-11C73.2,66.51,71,62.73,71,58.92,71,53.45,74.75,49,79.89,49,83.07,49,87,52.62,87,56a6.82,6.82,0,0,1,6.61-7C99.68,49,103,53.93,103,60Z"/><path class="cls-2" d="M26,60c0,9.85,14.11,15.62,23,21,0-5.4-.49-6.4,3.67-11C55.8,66.51,58,62.73,58,58.92,58,53.45,54.25,49,49.11,49,45.93,49,42,52.62,42,56a6.82,6.82,0,0,0-6.61-7C29.32,49,26,53.93,26,60Z"/><polygon class="cls-3" points="64.5 79 67.13 84.27 73 85.11 68.75 89.21 69.75 95 64.5 92.27 59.25 95 60.25 89.21 56 85.11 61.87 84.27 64.5 79"/><rect class="cls-4" width="128" height="128"/></svg>